<?xml version="1.0" encoding="UTF-8"?>
<svg id="Ebene_2" data-name="Ebene 2" xmlns="http://www.w3.org/2000/svg" xmlns:xlink="http://www.w3.org/1999/xlink" viewBox="0 0 206.93 206.93">
  <defs>
    <style>
      .cls-1 {
        fill: none;
      }

      .cls-1, .cls-2 {
        stroke-width: 0px;
      }

      .cls-3 {
        clip-path: url(#clippath);
      }

      .cls-2 {
        fill: #ff630f;
      }
    </style>
    <clipPath id="clippath">
      <rect class="cls-1" width="206.93" height="206.93"/>
    </clipPath>
  </defs>
  <g id="Ebene_1-2" data-name="Ebene 1">
    <g id="Bildmaterial_2" data-name="Bildmaterial 2">
      <g class="cls-3">
        <polygon class="cls-2" points="0 0 0 143.62 2.17 143.62 35.38 143.58 45.87 143.58 50.73 143.56 52.69 143.56 65.34 110.93 70.39 97.95 99.9 21.84 103.98 11.32 105.69 22.46 119.42 111.51 120.94 121.37 120.99 121.24 125.05 110.85 133.9 88.33 134.64 86.41 136.7 86.41 148.76 86.39 159.87 86.38 175.13 86.36 185.62 86.34 206.93 86.33 206.93 0 0 0"/>
        <polygon class="cls-2" points="87.11 100.12 82.09 113.11 78.08 123.46 69.27 146.2 68.66 147.75 66.07 154.43 64.67 158.06 63.91 159.99 61.82 159.98 57.77 159.94 36.93 159.83 0 159.61 0 206.93 206.93 206.93 206.93 102.73 204.5 102.73 187.23 102.75 176.73 102.76 155.85 102.78 145.83 102.79 141.8 113.06 137.74 123.42 128.84 146.15 124.79 156.45 118.09 173.55 114 183.97 112.29 172.91 109.65 155.76 108.07 145.53 104.57 122.81 102.97 112.45 97.1 74.39 87.11 100.12"/>
      </g>
    </g>
  </g>
</svg>